<svg xmlns="http://www.w3.org/2000/svg" width="17" height="17" viewBox="0 0 24 24">
  <g id="live" transform="translate(-1376.08 -1181.08)">
    <g id="Group_8" data-name="Group 8" transform="translate(1376.556 1181.556)">
      <circle id="Ellipse_12" data-name="Ellipse 12" cx="11.524" cy="11.524" r="11.524" transform="translate(0)" fill="#e8e8e8"/>
      <path id="Path_35" data-name="Path 35" d="M91.615,3.762a5.715,5.715,0,0,0-3.706.362,8.573,8.573,0,0,0-1.667,1.238l-.6.61A8.487,8.487,0,0,0,84.4,7.63a5.716,5.716,0,0,0-.372,3.706,5.592,5.592,0,0,0,2.743,3.429c1.648,1.1,3.229,2.124,3.229,2.124l1.962-1.962a30.673,30.673,0,0,1-3.372-2.1c-1.115-.9-2.067-1.553-2.1-3.048A3.163,3.163,0,0,1,87.357,7.7l.61-.61a3.163,3.163,0,0,1,2.086-.857c1.5,0,2.153.953,3.048,2.1A29.176,29.176,0,0,1,95.2,11.7l1.991-2s-1.029-1.572-2.124-3.22a5.639,5.639,0,0,0-3.448-2.715Z" transform="translate(-80.66 -0.647)"/>
      <path id="Path_36" data-name="Path 36" d="M95.8,11.983l.934,1.486,1.953-1.953-.934-1.486" transform="translate(-81.09 -0.865)" fill="#fff"/>
      <path id="Path_37" data-name="Path 37" d="M93.769,16.443,91.816,18.4l-1.486-.943L92.283,15.5Z" transform="translate(-80.877 -1.079)" fill="#fff"/>
      <path id="Path_38" data-name="Path 38" d="M93.6,14.425l1.515-1.505,1.515,3.229,1.305-1.305.924,5.354-1.981-3.239-1.21,1.21Z" transform="translate(-80.99 -0.948)" fill="#ffab31"/>
    </g>
    <path id="Path_34" data-name="Path 34" d="M92,.96A11.04,11.04,0,1,1,80.96,12,11.04,11.04,0,0,1,92,.96M92,0a12,12,0,1,0,12,12A12,12,0,0,0,92,0Z" transform="translate(1296.08 1181.08)" fill="#d9d9d9"/>
  </g>
</svg>
