<svg xmlns="http://www.w3.org/2000/svg" viewBox="0 0 241.754 34.144"><defs><style>.a{fill:#fff;}.b{fill:#39f;}</style></defs><g transform="translate(-40 -50)"><g transform="translate(40 50)"><g transform="translate(117.947)"><path class="a" d="M356.732,0h-.11L331.76,34.116l9.674.028,15.294-21.765h0V34.13H364.2V0Z" transform="translate(-331.76)"/><path class="a" d="M631.664,14.878V0H605V10.808l5.333,5.077V15.9l10.52,10.769h-8.124l-7.374-7.395V34.13h26.308V26.657l-1.692-1.746.029-.032L612.672,7.466h11.746Z" transform="translate(-507.858)"/><path class="a" d="M538.92,0H519V34.13h7.821V7.466h12.088v.171L531.443,15V25.651l7.466-7.359v.021l7.466-7.505V0H538.92Z" transform="translate(-452.433)"/><path class="a" d="M451.92,0H432V34.13h7.821V7.466h12.088V7.58l-7.466,7.306V25.651l14.932-14.843V0H451.92Z" transform="translate(-396.363)"/></g><path class="b" d="M117.627,9.244,110.137.107V0H90.227L82.694,9.244,82.63,24.9l7.562,9.226h19.945v-.146l7.487-9.059Zm-27.4,17.42V7.466h19.909v19.2Z" transform="translate(-53.253)"/><path class="b" d="M313.922,7.466,319.077,0H281.9V34.13h13l5.152-7.466h-10.69V20.62h15.846l5.155-7.466h-21V7.466Z" transform="translate(-181.64)"/><path class="b" d="M27.375,10.808V0H0V7.466H19.909v.156L7.5,19.906,19.792,34.13h9.574l-11.5-13.911Z"/><path class="b" d="M212.213,0H190V7.466h22.042v19.2H190V34.13h22.213l7.573-9.219-.057-15.678Z" transform="translate(-122.451)"/></g></g></svg>