<svg xmlns="http://www.w3.org/2000/svg" xmlns:xlink="http://www.w3.org/1999/xlink" width="231" height="44.833" viewBox="0 0 231 44.833">
  <defs>
    <clipPath id="clip-path">
      <path id="_Clipping_Path_" data-name="&lt;Clipping Path&gt;" d="M41.283,9.79a19.1,19.1,0,0,1,.6,4.462c-.076.913-.453,1.167.076,1.86s2.485,2.938,2.485,2.938.3.384.076.686a2.19,2.19,0,0,1-.755.8,10.125,10.125,0,0,1-.954.364c-.2.261.124.686.35.92a.975.975,0,0,1,.178,1.133,1.531,1.531,0,0,1-.4.432.975.975,0,0,1,.508.556,1.1,1.1,0,0,1-.281.892,2.842,2.842,0,0,1-.686.329c-.24.117.412.783.467,1.249a2.059,2.059,0,0,1-.783,1.922,4.675,4.675,0,0,1-2.746.618,9.305,9.305,0,0,0-3.316.275,16.118,16.118,0,0,0-2.835,1.97q-1.009,1.229-1.929,2.5a24.026,24.026,0,0,0-2.581,4.51,12.741,12.741,0,0,0-1.009,5.148H25.988a25.118,25.118,0,0,1,.6-5.794,29.277,29.277,0,0,1,1.5-4.654,38.149,38.149,0,0,1,1.943-3.968q1.05-1.853,1.943-3.741a26.642,26.642,0,0,0,1.5-4,16.99,16.99,0,0,0,.6-4.709,13.276,13.276,0,0,0-.6-4.222,8.341,8.341,0,0,0-1.7-2.993A6.865,6.865,0,0,0,29.208,7.49a8.656,8.656,0,0,0-3.226-.59,10.578,10.578,0,0,0-2.8.357,7.249,7.249,0,0,0-2.231,1A5.045,5.045,0,0,0,19.508,9.79a3.583,3.583,0,0,0-.535,1.908,3.48,3.48,0,0,0,.378,1.73,11.457,11.457,0,0,0,.8,1.229q.426.57.8,1.16a2.7,2.7,0,0,1,.364,1.448,3.535,3.535,0,0,1-.858,2.5,2.746,2.746,0,0,1-2.059.927,3.3,3.3,0,0,1-1.586-.391,3.94,3.94,0,0,1-1.284-1.126,5.492,5.492,0,0,1-.831-1.682,7.263,7.263,0,0,1-.3-2.155,10.036,10.036,0,0,1,1.229-5.114,11.4,11.4,0,0,1,.638-.982,23.01,23.01,0,0,0,6.9,42.039,4.167,4.167,0,0,1-.1-.913,3.906,3.906,0,0,1,.323-1.586,4.386,4.386,0,0,1,.872-1.311,3.968,3.968,0,0,1,1.3-.892,4.029,4.029,0,0,1,1.606-.323,3.906,3.906,0,0,1,1.586.323,4.029,4.029,0,0,1,1.277.892,4.4,4.4,0,0,1,.872,1.3,3.906,3.906,0,0,1,.323,1.586,4.05,4.05,0,0,1-.24,1.373A23.031,23.031,0,0,0,41.283,9.81Z" transform="translate(-5.295 -6.899)" fill="none"/>
    </clipPath>
  </defs>
  <g id="Logo" transform="translate(-1265 -107)">
    <g id="Layer_1" data-name="Layer 1" transform="translate(1265 107)">
      <g id="_Group_" data-name="&lt;Group&gt;" transform="translate(53.275 8.176)">
        <path id="_Compound_Path_" data-name="&lt;Compound Path&gt;" d="M100.306,28.484q0,5.4-4.716,6.8l5.711,7.929H96.619l-5.21-7.331H86.6v7.331H82.89V21.4H91q4.991,0,7.146,1.689T100.306,28.484Zm-4.9,3.089a3.892,3.892,0,0,0,1.126-3.1,3.321,3.321,0,0,0-1.153-2.931,7.673,7.673,0,0,0-4.119-.8H86.569v7.8h4.586Q94.278,32.541,95.4,31.573Z" transform="translate(-82.89 -19.622)"/>
        <path id="_Compound_Path_2" data-name="&lt;Compound Path&gt;" d="M129.085,38.716H116.042a3.782,3.782,0,0,0,1.654,2.917,6.437,6.437,0,0,0,8.238-.858l2.032,2.183a9.288,9.288,0,0,1-7,2.746,8.32,8.32,0,0,1-5.945-2.327,8.2,8.2,0,0,1-2.451-6.24,8.073,8.073,0,0,1,2.5-6.192,8.382,8.382,0,0,1,5.883-2.307,8.526,8.526,0,0,1,5.759,2.059,7.05,7.05,0,0,1,2.375,5.636ZM116.042,35.97h9.521a4,4,0,0,0-1.311-3.213,4.805,4.805,0,0,0-3.206-1.126,5.533,5.533,0,0,0-3.432,1.174,3.782,3.782,0,0,0-1.545,3.158Z" transform="translate(-92.195 -21.891)"/>
        <path id="_Compound_Path_3" data-name="&lt;Compound Path&gt;" d="M152.24,40.556a4.675,4.675,0,0,1-1.716,3.789,6.672,6.672,0,0,1-4.4,1.421,11.787,11.787,0,0,1-3.762-.686,11.285,11.285,0,0,1-3.432-1.84l1.689-2.746a9.418,9.418,0,0,0,5.615,2.183,2.931,2.931,0,0,0,1.874-.549,1.7,1.7,0,0,0,.686-1.373q0-1.249-3.309-2.245l-.378-.124q-5.183-1.373-5.183-4.682a4.441,4.441,0,0,1,1.8-3.686,7.414,7.414,0,0,1,4.668-1.373,9.707,9.707,0,0,1,5.43,1.689l-1.311,2.588a7.826,7.826,0,0,0-4.4-1.373,4.016,4.016,0,0,0-2.059.453,1.476,1.476,0,0,0-.783,1.373,1.242,1.242,0,0,0,.81,1.188,7.875,7.875,0,0,0,1.579.529q1.016.247,1.792.5t1.517.563a9.829,9.829,0,0,1,1.579.872,3.906,3.906,0,0,1,1.7,3.528Z" transform="translate(-100.461 -21.891)"/>
        <path id="_Compound_Path_4" data-name="&lt;Compound Path&gt;" d="M171.869,28.63a7.894,7.894,0,0,1,5.711,2.313,8.2,8.2,0,0,1,2.375,6.178,8.54,8.54,0,0,1-2.361,6.178,7.3,7.3,0,0,1-11.128-.343v8.581H163V28.884h3.494v2.9A6.154,6.154,0,0,1,171.869,28.63Zm-5.492,8.581a5.416,5.416,0,0,0,1.435,3.885,4.634,4.634,0,0,0,3.522,1.517,4.963,4.963,0,0,0,3.59-1.5,5.2,5.2,0,0,0,1.531-3.885,5.526,5.526,0,0,0-1.5-3.961,4.805,4.805,0,0,0-3.59-1.579,4.586,4.586,0,0,0-3.528,1.579,5.643,5.643,0,0,0-1.407,3.94Z" transform="translate(-108.008 -21.889)"/>
        <path id="_Compound_Path_5" data-name="&lt;Compound Path&gt;" d="M205.765,43.253a9.1,9.1,0,0,1-12.487,0,8.618,8.618,0,0,1,0-12.137,9.1,9.1,0,0,1,12.487,0,8.618,8.618,0,0,1,0,12.137ZM195.736,41.1a5.43,5.43,0,0,0,7.551,0,5.361,5.361,0,0,0,1.483-3.92,5.361,5.361,0,0,0-1.483-3.913,5.43,5.43,0,0,0-7.551,0,5.361,5.361,0,0,0-1.483,3.92A5.361,5.361,0,0,0,195.736,41.1Z" transform="translate(-116.717 -21.891)"/>
        <path id="_Compound_Path_6" data-name="&lt;Compound Path&gt;" d="M224.4,36.5V45.49H220.91V28.884H224.4V31.9a6.521,6.521,0,0,1,10.064-1.558,6.688,6.688,0,0,1,1.73,4.963V45.483H232.7V36.374q0-4.586-3.81-4.586A4.579,4.579,0,0,0,225.729,33,4.469,4.469,0,0,0,224.4,36.5Z" transform="translate(-126.165 -21.889)"/>
        <path id="_Compound_Path_7" data-name="&lt;Compound Path&gt;" d="M260.27,40.556a4.675,4.675,0,0,1-1.716,3.789,6.672,6.672,0,0,1-4.4,1.421,11.787,11.787,0,0,1-3.762-.686,11.278,11.278,0,0,1-3.432-1.84l1.689-2.746a9.418,9.418,0,0,0,5.615,2.183,2.931,2.931,0,0,0,1.874-.549,1.7,1.7,0,0,0,.686-1.373q0-1.249-3.309-2.245l-.371-.124q-5.183-1.373-5.183-4.682a4.441,4.441,0,0,1,1.771-3.686,7.407,7.407,0,0,1,4.668-1.373,9.713,9.713,0,0,1,5.43,1.689l-1.311,2.588a7.826,7.826,0,0,0-4.4-1.373A4.016,4.016,0,0,0,252.06,32a1.476,1.476,0,0,0-.783,1.373,1.242,1.242,0,0,0,.81,1.188,7.852,7.852,0,0,0,1.579.529q1.016.247,1.792.5t1.517.563a9.829,9.829,0,0,1,1.579.872,3.906,3.906,0,0,1,1.716,3.528Z" transform="translate(-134.332 -21.891)"/>
        <path id="_Compound_Path_8" data-name="&lt;Compound Path&gt;" d="M271.039,22.489a2.183,2.183,0,1,1,1.558.686,2.128,2.128,0,0,1-1.558-.686ZM274.313,42.4h-3.487V25.805h3.494Z" transform="translate(-141.696 -18.81)"/>
        <path id="_Compound_Path_9" data-name="&lt;Compound Path&gt;" d="M291.21,25.749a7.894,7.894,0,0,1,5.711,2.313,8.2,8.2,0,0,1,2.341,6.178,8.539,8.539,0,0,1-2.32,6.178,7.3,7.3,0,0,1-11.128-.343v2.5H282.32V19.44h3.494V28.9A6.214,6.214,0,0,1,291.21,25.749Zm-5.492,8.581a5.416,5.416,0,0,0,1.435,3.885,4.634,4.634,0,0,0,3.528,1.517,4.963,4.963,0,0,0,3.59-1.5,5.2,5.2,0,0,0,1.558-3.885,5.492,5.492,0,0,0-1.5-3.961,4.805,4.805,0,0,0-3.59-1.579,4.586,4.586,0,0,0-3.528,1.579,5.642,5.642,0,0,0-1.462,3.94Z" transform="translate(-145.419 -19.008)"/>
        <path id="_Compound_Path_10" data-name="&lt;Compound Path&gt;" d="M312.8,52.213a6.013,6.013,0,0,1-4.119-1.654l1.593-2.842a3.288,3.288,0,0,0,2.265,1.03,2.4,2.4,0,0,0,1.9-.844,2.746,2.746,0,0,0,.735-1.84q0-.439-6.714-17.072h3.748l4.963,12.233L322.127,29h3.748l-8.052,19.722a6.007,6.007,0,0,1-2.059,2.56,5.066,5.066,0,0,1-2.965.934Z" transform="translate(-153.615 -22.002)"/>
        <path id="_Compound_Path_11" data-name="&lt;Compound Path&gt;" d="M340.194,42.6H336.7V19.44h3.494Z" transform="translate(-162.469 -19.008)"/>
      </g>
      <path id="_Path_" data-name="&lt;Path&gt;" d="M55.523,20.129a1.6,1.6,0,0,0,.048-1.249,2.382,2.382,0,0,0-1.277.371,3.007,3.007,0,0,1-.625.336,6.439,6.439,0,0,0,.927.316Z" transform="translate(-20.453 -10.656)"/>
      <path id="_Path_2" data-name="&lt;Path&gt;" d="M41.283,9.79a19.1,19.1,0,0,1,.6,4.462c-.076.913-.453,1.167.076,1.86s2.485,2.938,2.485,2.938.3.384.076.686a2.19,2.19,0,0,1-.755.8,10.125,10.125,0,0,1-.954.364c-.2.261.124.686.35.92a.975.975,0,0,1,.178,1.133,1.531,1.531,0,0,1-.4.432.975.975,0,0,1,.508.556,1.1,1.1,0,0,1-.281.892,2.842,2.842,0,0,1-.686.329c-.24.117.412.783.467,1.249a2.059,2.059,0,0,1-.783,1.922,4.675,4.675,0,0,1-2.746.618,9.305,9.305,0,0,0-3.316.275,16.118,16.118,0,0,0-2.835,1.97q-1.009,1.229-1.929,2.5a24.026,24.026,0,0,0-2.581,4.51,12.741,12.741,0,0,0-1.009,5.148H25.988a25.118,25.118,0,0,1,.6-5.794,29.277,29.277,0,0,1,1.5-4.654,38.149,38.149,0,0,1,1.943-3.968q1.05-1.853,1.943-3.741a26.642,26.642,0,0,0,1.5-4,16.99,16.99,0,0,0,.6-4.709,13.276,13.276,0,0,0-.6-4.222,8.341,8.341,0,0,0-1.7-2.993A6.865,6.865,0,0,0,29.208,7.49a8.656,8.656,0,0,0-3.226-.59,10.578,10.578,0,0,0-2.8.357,7.249,7.249,0,0,0-2.231,1A5.045,5.045,0,0,0,19.508,9.79a3.583,3.583,0,0,0-.535,1.908,3.48,3.48,0,0,0,.378,1.73,11.457,11.457,0,0,0,.8,1.229q.426.57.8,1.16a2.7,2.7,0,0,1,.364,1.448,3.535,3.535,0,0,1-.858,2.5,2.746,2.746,0,0,1-2.059.927,3.3,3.3,0,0,1-1.586-.391,3.94,3.94,0,0,1-1.284-1.126,5.492,5.492,0,0,1-.831-1.682,7.263,7.263,0,0,1-.3-2.155,10.036,10.036,0,0,1,1.229-5.114,11.4,11.4,0,0,1,.638-.982,23.01,23.01,0,0,0,6.9,42.039,4.167,4.167,0,0,1-.1-.913,3.906,3.906,0,0,1,.323-1.586,4.386,4.386,0,0,1,.872-1.311,3.968,3.968,0,0,1,1.3-.892,4.029,4.029,0,0,1,1.606-.323,3.906,3.906,0,0,1,1.586.323,4.029,4.029,0,0,1,1.277.892,4.4,4.4,0,0,1,.872,1.3,3.906,3.906,0,0,1,.323,1.586,4.05,4.05,0,0,1-.24,1.373A23.031,23.031,0,0,0,41.283,9.81Z" transform="translate(-5.286 -6.899)" fill="#ffc200"/>
      <g id="Group_1" data-name="Group 1" transform="translate(0.01)" clip-path="url(#clip-path)">
        <path id="_Path_3" data-name="&lt;Path&gt;" d="M25.59,16.082l12.466,20.2L50.509,2.01Z" transform="translate(-11.658 -5.366)" fill="#fbde51"/>
        <path id="_Path_4" data-name="&lt;Path&gt;" d="M17.395,17.332,14.072,5.12,0,24.78Z" transform="translate(-3.635 -6.341)" fill="#f8ab0a"/>
        <path id="_Path_5" data-name="&lt;Path&gt;" d="M17.395,22.91,7.448,52.448,0,30.358Z" transform="translate(-3.635 -11.919)" fill="#f9bc20"/>
        <path id="_Path_6" data-name="&lt;Path&gt;" d="M21.38,21.3,11.44,50.845l15.315,14.32Z" transform="translate(-7.222 -11.415)" fill="#fac729"/>
        <path id="_Path_7" data-name="&lt;Path&gt;" d="M25.46,20.7,38.345,41.239l-8.155,23.8Z" transform="translate(-11.618 -11.226)" fill="#fbd946"/>
        <path id="_Path_8" data-name="&lt;Path&gt;" d="M23.91,0l1.153,15.452L52.638,0Z" transform="translate(-11.132 -4.736)" fill="#fad23c"/>
      </g>
      <path id="_Path_9" data-name="&lt;Path&gt;" d="M25.983,14.66q.426.57.8,1.16a2.7,2.7,0,0,1,.378,1.448,3.535,3.535,0,0,1-.858,2.5,2.746,2.746,0,0,1-2.059.927.971.971,0,0,1-.316-.034,3.81,3.81,0,0,0,.94.748,3.3,3.3,0,0,0,1.586.391,2.746,2.746,0,0,0,2.059-.927,3.535,3.535,0,0,0,.858-2.5A2.7,2.7,0,0,0,29,16.891q-.371-.59-.8-1.16a11.458,11.458,0,0,1-.783-1.208,3.48,3.48,0,0,1-.378-1.73,3.583,3.583,0,0,1,.535-1.908A5.046,5.046,0,0,1,29.03,9.367a7.249,7.249,0,0,1,2.231-1,10.578,10.578,0,0,1,2.8-.357,8.924,8.924,0,0,1,2.588.371A6.865,6.865,0,0,0,35.085,7.5a8.656,8.656,0,0,0-3.226-.59,10.578,10.578,0,0,0-2.8.357,7.249,7.249,0,0,0-2.231,1,5.045,5.045,0,0,0-1.476,1.531,3.583,3.583,0,0,0-.535,1.908,3.48,3.48,0,0,0,.378,1.73,11.457,11.457,0,0,0,.789,1.229Z" transform="translate(-11.128 -6.903)"/>
      <path id="_Path_10" data-name="&lt;Path&gt;" d="M7.477,31a22.907,22.907,0,0,1,7.05-16.544A9.082,9.082,0,0,1,15.6,11.282a11.4,11.4,0,0,1,.638-.982,23,23,0,0,0,2.993,40.741A22.99,22.99,0,0,1,7.477,31Z" transform="translate(-5.281 -7.966)"/>
      <path id="_Path_11" data-name="&lt;Path&gt;" d="M51.089,11.11a19.1,19.1,0,0,1,.6,4.462c-.076.913-.453,1.167.076,1.86s2.485,2.938,2.485,2.938.3.384.076.686a2.19,2.19,0,0,1-.755.8,10.125,10.125,0,0,1-.954.364c-.2.261.124.686.35.92a.975.975,0,0,1,.178,1.133,1.531,1.531,0,0,1-.4.432.975.975,0,0,1,.508.556,1.1,1.1,0,0,1-.281.892,2.842,2.842,0,0,1-.686.329c-.24.117.412.783.467,1.249a2.059,2.059,0,0,1-.783,1.922,4.675,4.675,0,0,1-2.746.618,9.305,9.305,0,0,0-3.316.275,16.118,16.118,0,0,0-2.835,1.97q-1.009,1.229-1.929,2.5a24.026,24.026,0,0,0-2.581,4.51,12.741,12.741,0,0,0-1.009,5.148H36.57v2.952c.13,0,.261-.041.4-.041a3.906,3.906,0,0,1,1.586.323,4.03,4.03,0,0,1,1.284.886,4.4,4.4,0,0,1,.872,1.3,3.906,3.906,0,0,1,.323,1.586,4.05,4.05,0,0,1-.24,1.373,23.031,23.031,0,0,0,10.3-41.922Z" transform="translate(-15.092 -8.22)"/>
    </g>
  </g>
</svg>
