<svg xmlns="http://www.w3.org/2000/svg" width="19.55" height="23" viewBox="0 0 19.55 23">
  <g id="notification_icon" data-name="notification icon" transform="translate(-1986 -119.709)">
    <path id="Path_5" data-name="Path 5" d="M757.752,17.532a2.255,2.255,0,0,0,2.242-2.242H755.51a2.255,2.255,0,0,0,2.242,2.242Z" transform="translate(1238.016 125.176)" fill="#ffab31"/>
    <path id="Path_6" data-name="Path 6" d="M767.223,16.161V9.822a7.514,7.514,0,0,0-5.75-7.319V1.728a1.718,1.718,0,0,0-.494-1.221A1.7,1.7,0,0,0,759.768,0a1.737,1.737,0,0,0-1.651,1.728V2.5a7.515,7.515,0,0,0-5.75,7.319v6.339L750,18.487v1.156h19.55V18.487Z" transform="translate(1236 119.709)" fill="#ffab31"/>
  </g>
</svg>
