<svg xmlns="http://www.w3.org/2000/svg" width="13.22" height="17" viewBox="0 0 13.22 17">
  <g id="surveys_active" data-name="surveys active" transform="translate(-41 -672)">
    <rect id="Rectangle_14" data-name="Rectangle 14" width="5.67" height="1.89" transform="translate(44.78 672)" fill="#7e7e7e"/>
    <path id="Path_3" data-name="Path 3" d="M101.33.94h-.94V2.83H92.83V.94h-.94A1.89,1.89,0,0,0,90,2.83V15.11A1.89,1.89,0,0,0,91.89,17h9.44a1.89,1.89,0,0,0,1.89-1.89V2.83A1.89,1.89,0,0,0,101.33.94ZM92.84,14.25h-1v-.94h1Zm0-3.78h-1V9.53h1Zm0-3.78h-1V5.75h1Zm8.49,7.56H94.72v-.94h6.61Zm0-3.78H94.72V9.53h6.61Zm0-3.78H94.72V5.75h6.61Z" transform="translate(-49 672)" fill="#7e7e7e"/>
  </g>
</svg>
